<svg width="330" height="45" viewBox="0 0 330 45" fill="none" xmlns="http://www.w3.org/2000/svg">
<path d="M21.52 44.6C18.64 44.6 15.92 44.04 13.36 42.92C10.8 41.8 8.56 40.26 6.64 38.3C4.72 36.3 3.2 34 2.08 31.4C1 28.76 0.46 25.94 0.46 22.94C0.46 19.94 1 17.14 2.08 14.54C3.2 11.94 4.72 9.66 6.64 7.7C8.6 5.7 10.88 4.16 13.48 3.08C16.12 1.96 18.96 1.4 22 1.4C25.32 1.4 28.4 2.04 31.24 3.32C34.08 4.6 36.46 6.42 38.38 8.78L33.7 13.46C32.46 11.7 30.8 10.36 28.72 9.44C26.64 8.48 24.4 8 22 8C19.12 8 16.58 8.64 14.38 9.92C12.22 11.16 10.54 12.9 9.34 15.14C8.14 17.38 7.54 19.98 7.54 22.94C7.54 25.9 8.14 28.52 9.34 30.8C10.58 33.04 12.24 34.8 14.32 36.08C16.4 37.36 18.76 38 21.4 38C24.2 38 26.6 37.5 28.6 36.5C30.64 35.46 32.2 33.94 33.28 31.94C34.36 29.9 34.9 27.4 34.9 24.44L39.22 27.56H21.28V21.26H42.04V22.22C42.04 27.22 41.14 31.38 39.34 34.7C37.58 38.02 35.16 40.5 32.08 42.14C29 43.78 25.48 44.6 21.52 44.6ZM60.0677 44.6C57.4677 44.6 55.1077 43.94 52.9877 42.62C50.9077 41.3 49.2477 39.52 48.0077 37.28C46.8077 35 46.2077 32.46 46.2077 29.66C46.2077 26.82 46.8077 24.28 48.0077 22.04C49.2477 19.76 50.9077 17.96 52.9877 16.64C55.1077 15.28 57.4677 14.6 60.0677 14.6C62.2677 14.6 64.2077 15.08 65.8877 16.04C67.6077 16.96 68.9677 18.24 69.9677 19.88C70.9677 21.52 71.4677 23.38 71.4677 25.46V33.74C71.4677 35.82 70.9677 37.68 69.9677 39.32C69.0077 40.96 67.6677 42.26 65.9477 43.22C64.2277 44.14 62.2677 44.6 60.0677 44.6ZM61.1477 38.36C63.5877 38.36 65.5477 37.54 67.0277 35.9C68.5477 34.26 69.3077 32.16 69.3077 29.6C69.3077 27.88 68.9677 26.36 68.2877 25.04C67.6077 23.72 66.6477 22.7 65.4077 21.98C64.2077 21.22 62.7877 20.84 61.1477 20.84C59.5477 20.84 58.1277 21.22 56.8877 21.98C55.6877 22.7 54.7277 23.72 54.0077 25.04C53.3277 26.36 52.9877 27.88 52.9877 29.6C52.9877 31.32 53.3277 32.84 54.0077 34.16C54.7277 35.48 55.6877 36.52 56.8877 37.28C58.1277 38 59.5477 38.36 61.1477 38.36ZM68.8877 44V36.26L70.0277 29.24L68.8877 22.28V15.2H75.4877V44H68.8877ZM82.8123 44V15.2H89.4123V44H82.8123ZM101.952 44V26.84C101.952 24.92 101.352 23.44 100.152 22.4C98.9523 21.32 97.4723 20.78 95.7123 20.78C94.5123 20.78 93.4323 21.02 92.4723 21.5C91.5523 21.98 90.8123 22.68 90.2523 23.6C89.6923 24.48 89.4123 25.56 89.4123 26.84L86.8323 25.4C86.8323 23.2 87.3123 21.3 88.2723 19.7C89.2323 18.1 90.5323 16.86 92.1723 15.98C93.8123 15.06 95.6523 14.6 97.6923 14.6C99.7323 14.6 101.572 15.04 103.212 15.92C104.852 16.8 106.152 18.04 107.112 19.64C108.072 21.24 108.552 23.16 108.552 25.4V44H101.952ZM121.092 44V26.84C121.092 24.92 120.492 23.44 119.292 22.4C118.092 21.32 116.612 20.78 114.852 20.78C113.692 20.78 112.632 21.02 111.672 21.5C110.712 21.98 109.952 22.68 109.392 23.6C108.832 24.48 108.552 25.56 108.552 26.84L104.832 25.4C105.032 23.2 105.672 21.3 106.752 19.7C107.832 18.1 109.212 16.86 110.892 15.98C112.612 15.06 114.492 14.6 116.532 14.6C118.612 14.6 120.492 15.04 122.172 15.92C123.852 16.8 125.192 18.04 126.192 19.64C127.192 21.24 127.692 23.16 127.692 25.4V44H121.092ZM147.872 44.6C144.992 44.6 142.392 43.96 140.072 42.68C137.792 41.36 135.972 39.56 134.612 37.28C133.292 35 132.632 32.44 132.632 29.6C132.632 26.76 133.292 24.22 134.612 21.98C135.932 19.7 137.712 17.9 139.952 16.58C142.232 15.26 144.752 14.6 147.512 14.6C150.192 14.6 152.552 15.22 154.592 16.46C156.672 17.7 158.292 19.4 159.452 21.56C160.652 23.72 161.252 26.18 161.252 28.94C161.252 29.42 161.212 29.92 161.132 30.44C161.092 30.92 161.012 31.46 160.892 32.06H137.252V26.66H157.472L155.012 28.82C154.932 27.06 154.592 25.58 153.992 24.38C153.392 23.18 152.532 22.26 151.412 21.62C150.332 20.98 148.992 20.66 147.392 20.66C145.712 20.66 144.252 21.02 143.012 21.74C141.772 22.46 140.812 23.48 140.132 24.8C139.452 26.08 139.112 27.62 139.112 29.42C139.112 31.22 139.472 32.8 140.192 34.16C140.912 35.52 141.932 36.58 143.252 37.34C144.572 38.06 146.092 38.42 147.812 38.42C149.292 38.42 150.652 38.16 151.892 37.64C153.172 37.12 154.252 36.36 155.132 35.36L159.332 39.62C157.932 41.26 156.232 42.5 154.232 43.34C152.232 44.18 150.112 44.6 147.872 44.6Z" fill="black"/>
<path d="M167.443 44V2H172.243L189.703 30.74H186.583L204.043 2H208.843V44H201.943V14.12L203.503 14.54L190.543 35.84H185.743L172.783 14.54L174.343 14.12V44H167.443ZM229.111 44.6C226.511 44.6 224.151 43.94 222.031 42.62C219.951 41.3 218.291 39.52 217.051 37.28C215.851 35 215.251 32.46 215.251 29.66C215.251 26.82 215.851 24.28 217.051 22.04C218.291 19.76 219.951 17.96 222.031 16.64C224.151 15.28 226.511 14.6 229.111 14.6C231.311 14.6 233.251 15.08 234.931 16.04C236.651 16.96 238.011 18.24 239.011 19.88C240.011 21.52 240.511 23.38 240.511 25.46V33.74C240.511 35.82 240.011 37.68 239.011 39.32C238.051 40.96 236.711 42.26 234.991 43.22C233.271 44.14 231.311 44.6 229.111 44.6ZM230.191 38.36C232.631 38.36 234.591 37.54 236.071 35.9C237.591 34.26 238.351 32.16 238.351 29.6C238.351 27.88 238.011 26.36 237.331 25.04C236.651 23.72 235.691 22.7 234.451 21.98C233.251 21.22 231.831 20.84 230.191 20.84C228.591 20.84 227.171 21.22 225.931 21.98C224.731 22.7 223.771 23.72 223.051 25.04C222.371 26.36 222.031 27.88 222.031 29.6C222.031 31.32 222.371 32.84 223.051 34.16C223.771 35.48 224.731 36.52 225.931 37.28C227.171 38 228.591 38.36 230.191 38.36ZM237.931 44V36.26L239.071 29.24L237.931 22.28V15.2H244.531V44H237.931ZM256.235 44V3.2H262.835V44H256.235ZM249.335 21.2V15.2H269.735V21.2H249.335ZM286.971 44.6C284.131 44.6 281.551 43.94 279.231 42.62C276.951 41.3 275.151 39.5 273.831 37.22C272.511 34.94 271.851 32.4 271.851 29.6C271.851 26.76 272.511 24.22 273.831 21.98C275.151 19.7 276.951 17.9 279.231 16.58C281.551 15.26 284.131 14.6 286.971 14.6C289.211 14.6 291.291 15.04 293.211 15.92C295.171 16.76 296.831 17.98 298.191 19.58L293.871 23.96C293.031 22.96 292.011 22.22 290.811 21.74C289.651 21.22 288.371 20.96 286.971 20.96C285.331 20.96 283.871 21.34 282.591 22.1C281.351 22.82 280.371 23.82 279.651 25.1C278.971 26.38 278.631 27.88 278.631 29.6C278.631 31.28 278.971 32.78 279.651 34.1C280.371 35.38 281.351 36.4 282.591 37.16C283.871 37.88 285.331 38.24 286.971 38.24C288.371 38.24 289.651 38 290.811 37.52C292.011 37 293.031 36.24 293.871 35.24L298.191 39.62C296.831 41.22 295.171 42.46 293.211 43.34C291.291 44.18 289.211 44.6 286.971 44.6ZM322.689 44V27.38C322.689 25.46 322.069 23.88 320.829 22.64C319.629 21.4 318.069 20.78 316.149 20.78C314.869 20.78 313.729 21.06 312.729 21.62C311.729 22.18 310.949 22.96 310.389 23.96C309.829 24.96 309.549 26.1 309.549 27.38L306.969 25.94C306.969 23.74 307.449 21.8 308.409 20.12C309.369 18.4 310.689 17.06 312.369 16.1C314.089 15.1 316.009 14.6 318.129 14.6C320.289 14.6 322.209 15.08 323.889 16.04C325.569 17 326.889 18.34 327.849 20.06C328.809 21.74 329.289 23.7 329.289 25.94V44H322.689ZM302.949 44V0.799998H309.549V44H302.949Z" fill="#D31FC1"/>
</svg>
